
        <svg xmlns="http://www.w3.org/2000/svg" xmlns:xlink="http://www.w3.org/1999/xlink" version="1.1" width="3159.9807894246032" height="584.6504568207226" viewBox="0 0 3159.9807894246032 584.6504568207226">
			
			<g transform="scale(7.999039471230165) translate(10, 10)">
				<defs id="SvgjsDefs1107"/><g id="SvgjsG1108" featureKey="nRdZyp-0" transform="matrix(0.6141250050803407,0,0,0.6141250050803407,-4.512435949520933,-3.658139065474261)" fill="#000"><title xmlns="http://www.w3.org/2000/svg">108all</title><path xmlns="http://www.w3.org/2000/svg" d="M79.89,37.59H20.11a12.41,12.41,0,1,0,0,24.81H79.89a12.41,12.41,0,0,0,0-24.81Zm0,18.81H20.11a6.41,6.41,0,1,1,0-12.81H79.89a6.41,6.41,0,0,1,0,12.81Z"/><path xmlns="http://www.w3.org/2000/svg" d="M24.85,47H21.1a3,3,0,1,0,0,6h3.75a3,3,0,0,0,0-6Z"/><path xmlns="http://www.w3.org/2000/svg" d="M42.85,47H39.1a3,3,0,1,0,0,6h3.75a3,3,0,0,0,0-6Z"/><path xmlns="http://www.w3.org/2000/svg" d="M79.89,67.59H20.11a12.41,12.41,0,1,0,0,24.81H79.89a12.41,12.41,0,0,0,0-24.81Zm0,18.81H20.11a6.41,6.41,0,1,1,0-12.81H79.89a6.41,6.41,0,0,1,0,12.81Z"/><path xmlns="http://www.w3.org/2000/svg" d="M24.85,77H21.1a3,3,0,1,0,0,6h3.75a3,3,0,0,0,0-6Z"/><path xmlns="http://www.w3.org/2000/svg" d="M42.85,77H39.1a3,3,0,1,0,0,6h3.75a3,3,0,0,0,0-6Z"/><path xmlns="http://www.w3.org/2000/svg" d="M79.89,7.59H20.11a12.41,12.41,0,1,0,0,24.81H79.89a12.41,12.41,0,0,0,0-24.81Zm0,18.81H20.11a6.41,6.41,0,1,1,0-12.81H79.89a6.41,6.41,0,0,1,0,12.81Z"/><path xmlns="http://www.w3.org/2000/svg" d="M24.85,17H21.1a3,3,0,0,0,0,6h3.75a3,3,0,0,0,0-6Z"/><path xmlns="http://www.w3.org/2000/svg" d="M42.85,17H39.1a3,3,0,0,0,0,6h3.75a3,3,0,0,0,0-6Z"/></g><g id="SvgjsG1109" featureKey="Q4qmbg-0" transform="matrix(2.8014548784822755,0,0,2.8014548784822755,75.26309829594206,-8.559042039322303)" fill="#000"><path d="M12.1 15.440000000000001 l2.12 2.12 c-1.54 1.72 -3.66 2.62 -5.9 2.62 c-4.28 0 -7.7 -3.32 -7.7 -7.68 c0 -4.34 3.42 -7.66 7.7 -7.66 c2.24 0 4.36 0.9 5.92 2.64 l-2.16 2.16 c-0.84 -1.4 -2.28 -2.14 -3.76 -2.14 c-2.66 0 -4.5 2.42 -4.5 5 s1.82 5.02 4.5 5.02 c1.14 0 2.26 -0.34 3.78 -2.08 z M25.107708333333335 14.36 l0 5.64 l-2.96 0 l0 -5.64 c0 -1.52 -0.4 -2.16 -1.56 -2.16 c-1.2 0 -1.9 0.64 -1.9 2.16 l0 5.64 l-2.96 0 l0 -14.52 l2.96 0 l0 5.74 c0.38 -1.1 1.82 -1.24 2.68 -1.24 c2.76 0 3.74 1.34 3.74 4.38 z M29.055416666666666 13.04 l-2.2 -1.26 c1.1 -1.24 2.58 -1.82 4.12 -1.82 c2.96 0 4.16 1.62 4.16 3.14 l0 6.9 l-2.96 0 l0 -0.7 c-0.46 0.48 -1.28 0.84 -2.2 0.84 c-2.7 0 -3.74 -1.2 -3.74 -3.04 c0 -2.08 1.68 -3.48 4.4 -3.48 l1.54 0 c0 -0.74 -0.56 -1.22 -1.4 -1.22 c-0.86 0 -1.28 0.16 -1.72 0.64 z M32.17541666666666 16.740000000000002 l0 -0.88 l-1.74 0 c-0.78 0 -1.36 0.54 -1.24 1.3 c0.08 0.54 0.56 0.76 1.24 0.76 c1.3 0 1.74 -0.74 1.74 -1.18 z M39.803124999999994 10.12 l0 9.88 l-2.96 0 l0 -9.88 l2.96 0 z M39.88312499999999 7.279999999999999 c0 0.84 -0.68 1.5 -1.58 1.5 c-0.86 0 -1.56 -0.66 -1.56 -1.5 c0 -0.82 0.7 -1.46 1.56 -1.46 c0.9 0 1.58 0.64 1.58 1.46 z M50.65083333333333 14.36 l0 5.64 l-2.96 0 l0 -5.64 c0 -1.5 -0.4 -2.16 -1.56 -2.16 c-1.2 0 -1.9 0.66 -1.9 2.16 l0 5.64 l-2.96 0 l0 -9.88 l2.96 0 l0 0.94 c0.76 -0.74 1.8 -1.08 2.66 -1.08 c2.78 0 3.76 1.34 3.76 4.38 z M62.37854166666666 9.04 c0 0.92 -0.34 1.82 -0.88 2.54 c1.02 0.88 1.66 2.2 1.66 3.64 c0 2.64 -2.12 4.78 -4.76 4.78 l-6.12 0 l0 -15 l6.12 0 c2.22 0 3.98 1.82 3.98 4.04 z M55.478541666666665 7.66 l0 2.78 l2.98 0 c0.38 -0.1 0.72 -0.72 0.72 -1.4 c0 -0.74 -0.34 -1.38 -0.78 -1.38 l-2.92 0 z M58.39854166666667 17.34 c0.86 0 1.54 -0.96 1.54 -2.12 c0 -1.14 -0.66 -2.08 -1.48 -2.12 l-2.98 0 l0 4.24 l2.92 0 z M69.24624999999999 12.42 c-1.22 0 -2.24 1.08 -2.24 2.66 c0 1.56 1.02 2.64 2.24 2.64 c1.24 0 2.26 -1.08 2.26 -2.64 c0 -1.58 -1.02 -2.66 -2.26 -2.66 z M69.24624999999999 9.98 c2.9 0 5.22 2.18 5.22 5.1 s-2.32 5.08 -5.22 5.08 c-2.88 0 -5.2 -2.16 -5.2 -5.08 s2.32 -5.1 5.2 -5.1 z M75.65395833333334 15.76 l0 -5.64 l2.96 0 l0 5.64 c0 1.52 0.42 2.16 1.56 2.16 c1.2 0 1.9 -0.64 1.9 -2.16 l0 -5.64 l2.96 0 l0 9.88 l-2.96 0 l0 -0.9 c-0.56 0.7 -1.78 1.06 -2.64 1.06 c-2.78 0 -3.78 -1.32 -3.78 -4.4 z M95.98166666666665 14.36 l0 5.64 l-2.96 0 l0 -5.64 c0 -1.5 -0.4 -2.16 -1.56 -2.16 c-1.2 0 -1.9 0.66 -1.9 2.16 l0 5.64 l-2.96 0 l0 -9.88 l2.96 0 l0 0.94 c0.76 -0.74 1.8 -1.08 2.66 -1.08 c2.78 0 3.76 1.34 3.76 4.38 z M96.96937499999999 15.08 c0 -2.92 1.92 -5.1 4.82 -5.1 c0.64 0 1.9 0.34 2.24 0.82 l0 -5.32 l2.98 0 l0 14.52 l-2.98 0 l0 -0.66 c-0.36 0.46 -1.38 0.82 -2.04 0.82 c-2.9 0 -5.02 -2.16 -5.02 -5.08 z M99.94937499999999 15.08 c0 1.56 1 2.84 2.24 2.84 c1.36 0 2.24 -1.52 2.24 -2.84 s-0.86 -2.86 -2.24 -2.86 c-1.24 0 -2.24 1.28 -2.24 2.86 z"/></g>
			</g>
		</svg>
	